<?xml version="1.0" encoding="UTF-8" standalone="no"?>
<svg
   width="512"
   height="512"
   xml:space="preserve"
   overflow="hidden"
   version="1.1"
   id="svg1"
   sodipodi:docname="favcon.svg"
   inkscape:export-filename="favicon.png"
   inkscape:export-xdpi="23.01"
   inkscape:export-ydpi="23.01"
   inkscape:version="1.4 (86a8ad7, 2024-10-11)"
   xmlns:inkscape="http://www.inkscape.org/namespaces/inkscape"
   xmlns:sodipodi="http://sodipodi.sourceforge.net/DTD/sodipodi-0.dtd"
   xmlns="http://www.w3.org/2000/svg"
   xmlns:svg="http://www.w3.org/2000/svg"><defs
     id="defs1"><inkscape:path-effect
       effect="fillet_chamfer"
       id="path-effect4"
       is_visible="true"
       lpeversion="1"
       nodesatellites_param="F,0,1,1,0,6.7144292,0,1 @ F,0,0,1,0,0,0,1 @ F,0,0,1,0,0,0,1 @ F,0,0,1,0,0,0,1 @ F,0,0,1,0,0,0,1 @ F,0,0,1,0,0,0,1 @ F,0,0,1,0,0,0,1 @ F,0,0,1,0,0,0,1 @ F,0,0,1,0,0,0,1 @ F,0,0,1,0,0,0,1 @ F,0,0,1,0,0,0,1 @ F,0,0,1,0,0,0,1 @ F,0,0,1,0,0,0,1 @ F,0,0,1,0,0,0,1 @ F,0,1,1,0,6.7144292,0,1 | F,0,0,1,0,0,0,1 @ F,0,0,1,0,0,0,1 @ F,0,0,1,0,0,0,1 @ F,0,0,1,0,0,0,1 @ F,0,0,1,0,0,0,1 @ F,0,0,1,0,0,0,1 @ F,0,0,1,0,0,0,1 @ F,0,0,1,0,0,0,1 @ F,0,0,1,0,0,0,1 @ F,0,0,1,0,0,0,1 @ F,0,0,1,0,0,0,1 | F,0,0,1,0,0,0,1 @ F,0,0,1,0,0,0,1 @ F,0,0,1,0,0,0,1 @ F,0,0,1,0,0,0,1 @ F,0,0,1,0,0,0,1 @ F,0,0,1,0,0,0,1 @ F,0,0,1,0,0,0,1 @ F,0,0,1,0,0,0,1 @ F,0,0,1,0,0,0,1 @ F,0,0,1,0,0,0,1 @ F,0,0,1,0,0,0,1 | F,0,1,1,0,6.7144292,0,1 @ F,0,0,1,0,0,0,1 @ F,0,0,1,0,0,0,1 @ F,0,0,1,0,0,0,1 @ F,0,0,1,0,0,0,1 @ F,0,0,1,0,0,0,1 @ F,0,0,1,0,0,0,1 @ F,0,0,1,0,0,0,1 @ F,0,0,1,0,0,0,1 @ F,0,0,1,0,0,0,1 @ F,0,0,1,0,0,0,1 @ F,0,0,1,0,0,0,1 @ F,0,0,1,0,0,0,1 @ F,0,0,1,0,0,0,1 @ F,0,1,1,0,6.7144292,0,1 | F,0,0,1,0,0,0,1 @ F,0,0,1,0,0,0,1 @ F,0,0,1,0,0,0,1 @ F,0,0,1,0,0,0,1 @ F,0,0,1,0,0,0,1 @ F,0,0,1,0,0,0,1 @ F,0,0,1,0,0,0,1 @ F,0,0,1,0,0,0,1 @ F,0,0,1,0,0,0,1 @ F,0,0,1,0,0,0,1 @ F,0,0,1,0,0,0,1 | F,0,0,1,0,0,0,1 @ F,0,0,1,0,0,0,1 @ F,0,0,1,0,0,0,1 @ F,0,0,1,0,0,0,1 @ F,0,0,1,0,0,0,1 @ F,0,0,1,0,0,0,1 @ F,0,0,1,0,0,0,1 @ F,0,0,1,0,0,0,1 @ F,0,0,1,0,0,0,1 @ F,0,0,1,0,0,0,1 @ F,0,0,1,0,0,0,1"
       radius="15"
       unit="px"
       method="auto"
       mode="F"
       chamfer_steps="1"
       flexible="false"
       use_knot_distance="true"
       apply_no_radius="true"
       apply_with_radius="true"
       only_selected="true"
       hide_knots="false" /><inkscape:path-effect
       effect="fillet_chamfer"
       id="path-effect3"
       is_visible="true"
       lpeversion="1"
       nodesatellites_param="F,0,0,1,0,0,0,1 @ F,0,0,1,0,0,0,1 @ F,0,0,1,0,0,0,1 @ F,0,0,1,0,0,0,1 @ F,0,0,1,0,0,0,1 @ F,0,0,1,0,0,0,1 @ F,0,0,1,0,0,0,1 @ F,0,0,1,0,0,0,1 @ F,0,0,1,0,0,0,1 @ F,0,0,1,0,0,0,1 @ F,0,0,1,0,0,0,1 @ F,0,0,1,0,0,0,1 @ F,0,0,1,0,0,0,1 @ F,0,0,1,0,0,0,1 @ F,0,0,1,0,0,0,1 | F,0,1,1,0,4.4762861,0,1 @ F,0,1,1,0,4.4762861,0,1 @ F,0,0,1,0,0,0,1 @ F,0,0,1,0,0,0,1 @ F,0,0,1,0,0,0,1 @ F,0,0,1,0,0,0,1 @ F,0,0,1,0,0,0,1 @ F,0,0,1,0,0,0,1 @ F,0,0,1,0,0,0,1 | F,0,1,1,0,4.4762861,0,1 @ F,0,1,1,0,4.4762861,0,1 @ F,0,0,1,0,0,0,1 @ F,0,0,1,0,0,0,1 @ F,0,0,1,0,0,0,1 @ F,0,0,1,0,0,0,1 @ F,0,0,1,0,0,0,1 @ F,0,0,1,0,0,0,1 @ F,0,0,1,0,0,0,1 | F,0,0,1,0,0,0,1 @ F,0,0,1,0,0,0,1 @ F,0,0,1,0,0,0,1 @ F,0,0,1,0,0,0,1 @ F,0,0,1,0,0,0,1 @ F,0,0,1,0,0,0,1 @ F,0,0,1,0,0,0,1 @ F,0,0,1,0,0,0,1 @ F,0,0,1,0,0,0,1 @ F,0,0,1,0,0,0,1 @ F,0,0,1,0,0,0,1 @ F,0,0,1,0,0,0,1 @ F,0,0,1,0,0,0,1 @ F,0,0,1,0,0,0,1 @ F,0,0,1,0,0,0,1 | F,0,1,1,0,4.4762861,0,1 @ F,0,1,1,0,4.4762861,0,1 @ F,0,0,1,0,0,0,1 @ F,0,0,1,0,0,0,1 @ F,0,0,1,0,0,0,1 @ F,0,0,1,0,0,0,1 @ F,0,0,1,0,0,0,1 @ F,0,0,1,0,0,0,1 @ F,0,0,1,0,0,0,1 | F,0,1,1,0,4.4762861,0,1 @ F,0,1,1,0,4.4762861,0,1 @ F,0,0,1,0,0,0,1 @ F,0,0,1,0,0,0,1 @ F,0,0,1,0,0,0,1 @ F,0,0,1,0,0,0,1 @ F,0,0,1,0,0,0,1 @ F,0,0,1,0,0,0,1 @ F,0,0,1,0,0,0,1"
       radius="10"
       unit="px"
       method="auto"
       mode="F"
       chamfer_steps="1"
       flexible="false"
       use_knot_distance="true"
       apply_no_radius="true"
       apply_with_radius="true"
       only_selected="true"
       hide_knots="false" /><inkscape:path-effect
       effect="fillet_chamfer"
       id="path-effect2"
       is_visible="true"
       lpeversion="1"
       nodesatellites_param="F,0,0,1,0,0,0,1 @ F,0,0,1,0,0,0,1 @ F,0,0,1,0,0,0,1 @ F,0,0,1,0,0,0,1 @ F,0,0,1,0,0,0,1 @ F,0,0,1,0,0,0,1 @ F,0,0,1,0,0,0,1 @ F,0,0,1,0,0,0,1 @ F,0,0,1,0,0,0,1 @ F,0,0,1,0,0,0,1 @ F,0,0,1,0,0,0,1 @ F,0,0,1,0,0,0,1 @ F,0,0,1,0,0,0,1 @ F,0,0,1,0,0,0,1 @ F,0,0,1,0,0,0,1 | F,0,0,1,0,0,0,1 @ F,0,0,1,0,0,0,1 @ F,0,0,1,0,0,0,1 @ F,0,0,1,0,0,0,1 @ F,0,0,1,0,0,0,1 @ F,0,0,1,0,0,0,1 @ F,0,0,1,0,0,0,1 @ F,0,0,1,0,0,0,1 @ F,0,0,1,0,0,0,1 | F,0,0,1,0,0,0,1 @ F,0,0,1,0,0,0,1 @ F,0,0,1,0,0,0,1 @ F,0,0,1,0,0,0,1 @ F,0,0,1,0,0,0,1 @ F,0,0,1,0,0,0,1 @ F,0,0,1,0,0,0,1 @ F,0,0,1,0,0,0,1 @ F,0,0,1,0,0,0,1 | F,0,0,1,0,0,0,1 @ F,0,0,1,0,0,0,1 @ F,0,0,1,0,0,0,1 @ F,0,0,1,0,0,0,1 @ F,0,0,1,0,0,0,1 @ F,0,0,1,0,0,0,1 @ F,0,0,1,0,0,0,1 @ F,0,0,1,0,0,0,1 @ F,0,0,1,0,0,0,1 @ F,0,0,1,0,0,0,1 @ F,0,0,1,0,0,0,1 @ F,0,0,1,0,0,0,1 @ F,0,0,1,0,0,0,1 @ F,0,0,1,0,0,0,1 @ F,0,0,1,0,0,0,1 | F,0,1,1,0,0,0,1 @ F,0,0,1,0,0,0,1 @ F,0,0,1,0,0,0,1 @ F,0,0,1,0,0,0,1 @ F,0,0,1,0,0,0,1 @ F,0,0,1,0,0,0,1 @ F,0,0,1,0,0,0,1 @ F,0,0,1,0,0,0,1 @ F,0,0,1,0,0,0,1 | F,0,0,1,0,0,0,1 @ F,0,0,1,0,0,0,1 @ F,0,0,1,0,0,0,1 @ F,0,0,1,0,0,0,1 @ F,0,0,1,0,0,0,1 @ F,0,0,1,0,0,0,1 @ F,0,0,1,0,0,0,1 @ F,0,0,1,0,0,0,1 @ F,0,0,1,0,0,0,1"
       radius="20"
       unit="px"
       method="auto"
       mode="F"
       chamfer_steps="1"
       flexible="false"
       use_knot_distance="true"
       apply_no_radius="true"
       apply_with_radius="true"
       only_selected="true"
       hide_knots="false" /><rect
       x="-244.56339"
       y="418.96515"
       width="549.26532"
       height="430.99286"
       id="rect2" /><inkscape:path-effect
       effect="fillet_chamfer"
       id="path-effect267"
       is_visible="true"
       lpeversion="1"
       nodesatellites_param="F,0,0,1,0,50,0,1 @ F,0,0,1,0,50,0,1 @ F,0,0,1,0,50,0,1 @ F,0,0,1,0,50,0,1 @ F,0,0,1,0,50,0,1 @ F,0,0,1,0,50,0,1 @ F,0,0,1,0,50,0,1 @ F,0,0,1,0,50,0,1 @ F,0,0,1,0,50,0,1 @ F,0,0,1,0,50,0,1 | F,0,0,1,0,50,0,1 @ F,0,0,1,0,50,0,1 @ F,0,0,1,0,50,0,1 @ F,0,0,1,0,50,0,1 @ F,0,0,1,0,50,0,1 @ F,0,0,1,0,50,0,1 @ F,0,0,1,0,50,0,1 @ F,0,0,1,0,50,0,1 @ F,0,0,1,0,50,0,1 @ F,0,0,1,0,50,0,1 @ F,0,0,1,0,50,0,1 @ F,0,0,1,0,50,0,1 @ F,0,0,1,0,50,0,1 @ F,0,0,1,0,50,0,1 @ F,0,0,1,0,50,0,1 @ F,0,0,1,0,50,0,1 @ F,0,0,1,0,50,0,1 @ F,0,0,1,0,50,0,1 | F,0,0,1,0,50,0,1 @ F,0,0,1,0,50,0,1 @ F,0,0,1,0,50,0,1 @ F,0,0,1,0,50,0,1 @ F,0,0,1,0,50,0,1 @ F,0,0,1,0,50,0,1 @ F,0,0,1,0,50,0,1 @ F,0,0,1,0,50,0,1 @ F,0,0,1,0,50,0,1 @ F,0,0,1,0,50,0,1 @ F,0,0,1,0,50,0,1 @ F,0,0,1,0,50,0,1"
       radius="50"
       unit="px"
       method="auto"
       mode="F"
       chamfer_steps="1"
       flexible="false"
       use_knot_distance="true"
       apply_no_radius="true"
       apply_with_radius="true"
       only_selected="true"
       hide_knots="false" /><inkscape:path-effect
       effect="fillet_chamfer"
       id="path-effect263"
       is_visible="true"
       lpeversion="1"
       nodesatellites_param="F,0,0,1,0,100,0,1 @ F,0,0,1,0,100,0,1 @ F,0,0,1,0,100,0,1 @ F,0,0,1,0,100,0,1 @ F,0,0,1,0,100,0,1 @ F,0,0,1,0,100,0,1 | F,0,0,1,0,100,0,1 @ F,0,0,1,0,100,0,1 @ F,0,0,1,0,100,0,1 @ F,0,0,1,0,100,0,1 @ F,0,0,1,0,100,0,1 @ F,0,0,1,0,100,0,1 @ F,0,0,1,0,100,0,1 @ F,0,0,1,0,100,0,1 @ F,0,0,1,0,100,0,1 @ F,0,0,1,0,100,0,1 | F,0,0,1,0,100,0,1 @ F,0,0,1,0,100,0,1 @ F,0,0,1,0,100,0,1 @ F,0,0,1,0,100,0,1 @ F,0,0,1,0,100,0,1 @ F,0,0,1,0,100,0,1 @ F,0,0,1,0,100,0,1 @ F,0,0,1,0,100,0,1"
       radius="100"
       unit="px"
       method="auto"
       mode="F"
       chamfer_steps="1"
       flexible="false"
       use_knot_distance="true"
       apply_no_radius="true"
       apply_with_radius="true"
       only_selected="true"
       hide_knots="false" /><inkscape:path-effect
       effect="fillet_chamfer"
       id="path-effect259"
       is_visible="true"
       lpeversion="1"
       nodesatellites_param="F,0,0,1,0,0,0,1 @ F,0,1,1,0,100,0,1 @ F,0,1,1,0,100,0,1 @ F,0,0,1,0,0,0,1 | F,0,0,1,0,0,0,1 @ F,0,0,1,0,0,0,1 @ F,0,0,1,0,0,0,1 @ F,0,0,1,0,0,0,1 @ F,0,0,1,0,0,0,1 @ F,0,0,1,0,0,0,1 @ F,0,0,1,0,0,0,1 @ F,0,0,1,0,0,0,1 @ F,0,0,1,0,0,0,1 @ F,0,0,1,0,0,0,1 | F,0,0,1,0,0,0,1 @ F,0,0,1,0,0,0,1 @ F,0,0,1,0,0,0,1 @ F,0,0,1,0,0,0,1 @ F,0,0,1,0,0,0,1 @ F,0,0,1,0,0,0,1 @ F,0,0,1,0,0,0,1 @ F,0,0,1,0,0,0,1"
       radius="100"
       unit="px"
       method="auto"
       mode="F"
       chamfer_steps="1"
       flexible="false"
       use_knot_distance="true"
       apply_no_radius="true"
       apply_with_radius="true"
       only_selected="true"
       hide_knots="false" /><inkscape:path-effect
       effect="fillet_chamfer"
       id="path-effect11"
       is_visible="true"
       lpeversion="1"
       nodesatellites_param="F,0,0,1,0,50,0,1 @ F,0,0,1,0,50,0,1 @ F,0,0,1,0,50,0,1 @ F,0,0,1,0,50,0,1 @ F,0,0,1,0,50,0,1 @ F,0,0,1,0,50,0,1 @ F,0,0,1,0,50,0,1 @ F,0,0,1,0,50,0,1 @ F,0,0,1,0,50,0,1 @ F,0,0,1,0,50,0,1 | F,0,0,1,0,50,0,1 @ F,0,0,1,0,50,0,1 @ F,0,0,1,0,50,0,1 @ F,0,0,1,0,50,0,1 @ F,0,0,1,0,50,0,1 @ F,0,0,1,0,50,0,1 @ F,0,0,1,0,50,0,1 @ F,0,0,1,0,50,0,1 @ F,0,0,1,0,50,0,1 @ F,0,0,1,0,50,0,1 @ F,0,0,1,0,50,0,1 @ F,0,0,1,0,50,0,1 @ F,0,0,1,0,50,0,1 @ F,0,0,1,0,50,0,1 @ F,0,0,1,0,50,0,1 @ F,0,0,1,0,50,0,1 @ F,0,0,1,0,50,0,1 @ F,0,0,1,0,50,0,1 | F,0,0,1,0,50,0,1 @ F,0,0,1,0,50,0,1 @ F,0,0,1,0,50,0,1 @ F,0,0,1,0,50,0,1 @ F,0,0,1,0,50,0,1 @ F,0,0,1,0,50,0,1 @ F,0,0,1,0,50,0,1 @ F,0,0,1,0,50,0,1 @ F,0,0,1,0,50,0,1 @ F,0,0,1,0,50,0,1 @ F,0,0,1,0,50,0,1 @ F,0,0,1,0,50,0,1"
       radius="50"
       unit="px"
       method="auto"
       mode="F"
       chamfer_steps="1"
       flexible="false"
       use_knot_distance="true"
       apply_no_radius="true"
       apply_with_radius="true"
       only_selected="true"
       hide_knots="false" /><inkscape:path-effect
       effect="fillet_chamfer"
       id="path-effect10"
       is_visible="true"
       lpeversion="1"
       nodesatellites_param="F,0,0,1,0,100,0,1 @ F,0,0,1,0,100,0,1 @ F,0,0,1,0,100,0,1 @ F,0,0,1,0,100,0,1 @ F,0,0,1,0,100,0,1 @ F,0,0,1,0,100,0,1 | F,0,0,1,0,100,0,1 @ F,0,0,1,0,100,0,1 @ F,0,0,1,0,100,0,1 @ F,0,0,1,0,100,0,1 @ F,0,0,1,0,100,0,1 @ F,0,0,1,0,100,0,1 @ F,0,0,1,0,100,0,1 @ F,0,0,1,0,100,0,1 @ F,0,0,1,0,100,0,1 @ F,0,0,1,0,100,0,1 | F,0,0,1,0,100,0,1 @ F,0,0,1,0,100,0,1 @ F,0,0,1,0,100,0,1 @ F,0,0,1,0,100,0,1 @ F,0,0,1,0,100,0,1 @ F,0,0,1,0,100,0,1 @ F,0,0,1,0,100,0,1 @ F,0,0,1,0,100,0,1"
       radius="100"
       unit="px"
       method="auto"
       mode="F"
       chamfer_steps="1"
       flexible="false"
       use_knot_distance="true"
       apply_no_radius="true"
       apply_with_radius="true"
       only_selected="true"
       hide_knots="false" /><inkscape:path-effect
       effect="fillet_chamfer"
       id="path-effect7"
       is_visible="true"
       lpeversion="1"
       nodesatellites_param="F,0,0,1,0,0,0,1 @ F,0,1,1,0,100,0,1 @ F,0,1,1,0,100,0,1 @ F,0,0,1,0,0,0,1 | F,0,0,1,0,0,0,1 @ F,0,0,1,0,0,0,1 @ F,0,0,1,0,0,0,1 @ F,0,0,1,0,0,0,1 @ F,0,0,1,0,0,0,1 @ F,0,0,1,0,0,0,1 @ F,0,0,1,0,0,0,1 @ F,0,0,1,0,0,0,1 @ F,0,0,1,0,0,0,1 @ F,0,0,1,0,0,0,1 | F,0,0,1,0,0,0,1 @ F,0,0,1,0,0,0,1 @ F,0,0,1,0,0,0,1 @ F,0,0,1,0,0,0,1 @ F,0,0,1,0,0,0,1 @ F,0,0,1,0,0,0,1 @ F,0,0,1,0,0,0,1 @ F,0,0,1,0,0,0,1"
       radius="100"
       unit="px"
       method="auto"
       mode="F"
       chamfer_steps="1"
       flexible="false"
       use_knot_distance="true"
       apply_no_radius="true"
       apply_with_radius="true"
       only_selected="true"
       hide_knots="false" /></defs><sodipodi:namedview
     id="namedview1"
     pagecolor="#ffffff"
     bordercolor="#999999"
     borderopacity="1"
     inkscape:showpageshadow="2"
     inkscape:pageopacity="0"
     inkscape:pagecheckerboard="0"
     inkscape:deskcolor="#d1d1d1"
     showgrid="false"
     showguides="true"
     inkscape:zoom="1.4109557"
     inkscape:cx="246.28697"
     inkscape:cy="204.11697"
     inkscape:window-width="1920"
     inkscape:window-height="1027"
     inkscape:window-x="1912"
     inkscape:window-y="-8"
     inkscape:window-maximized="1"
     inkscape:current-layer="svg1"><inkscape:grid
       id="grid4"
       units="px"
       originx="0"
       originy="0"
       spacingx="1"
       spacingy="1"
       empcolor="#0099e5"
       empopacity="0.30196078"
       color="#0099e5"
       opacity="0.14901961"
       empspacing="5"
       dotted="false"
       gridanglex="30"
       gridanglez="30"
       visible="false" /></sodipodi:namedview><path
     d="M 1.6000001e-7,85.335408 C 1.6000001e-7,38.205989 38.189065,-1.2e-6 85.294983,-1.2e-6 H 426.70503 c 47.10592,0 85.29498,38.2059902 85.29498,85.3354092 V 426.66506 c 0,47.12798 -38.18906,85.33493 -85.29498,85.33493 H 85.294983 C 38.189065,511.99999 1.6000001e-7,473.79304 1.6000001e-7,426.66506 Z"
     fill="#363945"
     fill-rule="evenodd"
     id="path1"
     style="display:inline;stroke-width:0.239757"
     inkscape:export-filename="__ dev/assets/imgs/icons/ios/192-full.png"
     inkscape:export-xdpi="36"
     inkscape:export-ydpi="36" /><g
     id="g4"
     transform="matrix(0.23970038,0,0,0.23981264,-276.17067,-40.768154)"
     style="display:inline"><path
       id="text1"
       style="font-weight:700;font-size:2273px;font-family:Roboto, Roboto_MSFontService, sans-serif;display:none;fill:#efe1ce"
       d="m 1540.7796,2045.4805 c -81.9829,-2.613 -117.0113,-6.7153 -144.2725,-17.1775 -25.3563,-9.731 -49.5531,-49.5109 -52.5531,-76.7517 -1.8875,-17.1397 -2.6647,-36.5639 -2.9791,-56.072 -0.4448,-27.6102 -0.1953,-72.3846 -0.1953,-99.9988 l 0,-1115.96097 c 0,-27.61424 -0.3666,-72.40753 1.0126,-99.98428 1.6004,-31.99863 5.7027,-67.02701 16.1649,-94.28821 9.731,-25.35627 49.5109,-49.55314 76.7517,-52.55307 17.1397,-1.88752 36.5639,-2.66478 56.072,-2.97909 27.6102,-0.44485 64.7549,-0.19535 82.9578,-0.19535 64.7294,21.40849 78.5915,35.27063 87.7791,52.0563 13.1197,23.96964 12.2209,70.32946 12.2209,97.9437 V 1895.4805 c 0,27.6142 0.8988,73.9741 -12.2209,97.9437 -9.1876,16.7857 -23.0497,30.6478 -39.8354,39.8354 -23.9696,13.1197 -62.6998,12.2209 -80.9027,12.2209 z m 323.462,-150.0001 V 579.51958 c 0,-27.61424 -0.8988,-73.97406 12.2209,-97.9437 9.1876,-16.78567 23.0497,-30.64781 39.8354,-39.83538 23.9696,-13.11969 70.3295,-12.22092 97.9437,-12.22092 h 197.2188 c 27.6142,0 72.3858,-0.073 100,-0.007 32.1629,0.0767 67.8525,0.44637 99.9359,1.90375 27.5801,1.25281 72.1405,6.05803 99.3181,10.92397 32.4115,5.80305 63.8946,13.57611 94.4493,23.31917 26.3036,8.38748 67.8647,25.2236 92.5246,37.6323 28.6775,14.43036 59.6745,32.12913 86.6402,49.53606 23.1927,14.97131 58.6769,42.40424 79.0329,61.05363 20.6839,18.9498 40.1408,39.25481 58.3707,60.91503 17.7774,21.12258 43.8119,57.63573 58.005,81.31389 16.5039,27.53344 33.2665,59.04168 46.938,88.09423 11.7548,24.97945 27.7143,66.87324 35.7422,93.28985 11.1478,36.68246 19.7834,74.66531 25.9069,113.94851 4.2527,27.2813 8.4936,71.8885 9.6347,99.4753 1.0342,25.0043 1.4036,51.0239 1.5262,74.3181 0.1453,27.6134 -1.4707,72.3358 -3.7871,99.8524 -8.6489,102.7442 -19.133,163.6058 -32.879,212.1568 -7.5205,26.5626 -23.4702,68.4807 -35.1425,93.4989 -13.5762,29.0987 -30.2395,60.6615 -46.6762,88.2337 -14.1356,23.7121 -40.1352,60.2531 -57.9205,81.3687 -17.6836,20.995 -36.5759,40.7461 -56.6771,59.2534 -20.31,18.6995 -55.7204,46.2288 -78.8874,61.2395 -26.9309,17.4495 -57.901,35.1802 -86.5602,49.6373 -24.6474,12.4335 -66.1931,29.3043 -92.4762,37.7565 -30.6148,9.8452 -62.1144,17.7394 -94.4988,23.6825 -27.1563,4.9836 -71.6932,10.0096 -99.269,11.3594 -32.0751,1.57 -67.761,2.0342 -99.9222,2.1646 -27.6135,0.1119 -72.3848,0.04 -99.999,0.04 l -200.5483,0 c -27.6142,0 -73.9741,0.8988 -97.9437,-12.2209 -16.7857,-9.1876 -30.6478,-23.0497 -39.8354,-39.8354 -13.1197,-23.9696 -12.2209,-70.3295 -12.2209,-97.9437 z m 332.959,-1046.26412 v 778.78712 c 0,27.6142 -0.8988,73.9741 12.2209,97.9437 9.1876,16.7857 23.0497,30.6478 39.8354,39.8354 23.9696,13.1197 70.3317,12.5382 97.9429,12.1573 18.9196,-0.261 39.9867,-0.9584 60.7942,-2.6839 27.5039,-2.2808 71.6493,-10.7777 97.7635,-19.6969 11.6697,-3.9857 22.9562,-8.5023 33.8596,-13.5497 25.0348,-11.5892 62.2674,-37.0435 81.8597,-56.4446 22.6246,-22.4038 45.0394,-50.1263 62.6811,-76.7812 15.2262,-23.0053 34.2368,-63.7457 43.0924,-89.8886 8.9067,-26.2939 16.1096,-54.4414 21.6087,-84.4426 4.9776,-27.1568 9.8028,-71.7192 11.1462,-99.2959 1.3724,-28.1689 1.8616,-58.3384 2.0322,-85.3929 0.1742,-27.6131 -1.3866,-72.3381 -3.6858,-99.8562 -7.8874,-94.3985 -17.3482,-149.783 -29.5337,-190.7978 -7.8588,-26.4517 -26.5444,-67.3998 -41.6032,-90.51307 -17.4414,-26.77036 -39.7259,-54.59607 -62.2773,-77.06227 -19.533,-19.45915 -56.7619,-44.93209 -81.8083,-56.49504 -10.9412,-5.05111 -22.2771,-9.56805 -34.0079,-13.55084 -26.1305,-8.87167 -70.315,-17.14355 -97.8312,-19.26365 -31.9433,-2.46121 -67.6469,-3.00615 -99.8299,-3.07835 -27.614,-0.062 -74.1961,4.47751 -92.9559,24.1807 -7.3828,7.75408 -13.2352,16.86147 -17.2208,26.79863 -10.1273,25.25044 -4.0828,71.47643 -4.0828,99.09067 z"
       inkscape:path-effect="#path-effect7;#path-effect10;#path-effect11"
       inkscape:original-d="m 1673.7386,2045.4805 h -332.959 V 429.51953 h 332.959 z m 190.503,-10e-5 V 429.51958 h 497.2188 c 142.0625,0 268.9568,32.186 380.6831,96.5581 112.4661,63.6321 200.1453,154.6409 263.0376,273.0263 62.8922,117.6455 94.3383,251.56902 94.3383,401.77052 v 74.3608 c 0,150.2015 -31.0762,283.7551 -93.2285,400.6607 -61.4124,116.9056 -148.3517,207.5444 -260.8178,271.9165 -112.4662,64.372 -239.3606,96.928 -380.6832,97.6679 z M 2197.2006,699.21628 V 1778.0034 h 160.9302 c 130.2239,0 229.7417,-42.5448 298.5532,-127.6343 68.8115,-85.0895 103.9572,-206.8045 105.437,-365.145 v -85.4595 c 0,-164.2598 -34.0358,-288.56442 -102.1074,-372.91402 -68.0716,-85.0895 -167.5893,-127.63429 -298.5532,-127.63429 z"
       inkscape:label="text1" /></g><rect
     style="display:none;fill:#363945;stroke-width:38.67"
     id="rect323"
     width="512"
     height="512"
     x="0"
     y="0" /><g
     inkscape:groupmode="layer"
     id="layer1"
     inkscape:label="Layer 1"
     style="display:none"><path
       id="path255"
       style="font-weight:700;font-size:2273px;font-family:Roboto, Roboto_MSFontService, sans-serif;display:none;fill:#efe1ce"
       d="m 1540.7796,2045.4805 c -81.9829,-2.613 -117.0113,-6.7153 -144.2725,-17.1775 -25.3563,-9.731 -49.5531,-49.5109 -52.5531,-76.7517 -1.8875,-17.1397 -2.6647,-36.5639 -2.9791,-56.072 -0.4448,-27.6102 -0.1953,-72.3846 -0.1953,-99.9988 l 0,-1115.96097 c 0,-27.61424 -0.3666,-72.40753 1.0126,-99.98428 1.6004,-31.99863 5.7027,-67.02701 16.1649,-94.28821 9.731,-25.35627 49.5109,-49.55314 76.7517,-52.55307 17.1397,-1.88752 36.5639,-2.66478 56.072,-2.97909 27.6102,-0.44485 64.7549,-0.19535 82.9578,-0.19535 64.7294,21.40849 78.5915,35.27063 87.7791,52.0563 13.1197,23.96964 12.2209,70.32946 12.2209,97.9437 V 1895.4805 c 0,27.6142 0.8988,73.9741 -12.2209,97.9437 -9.1876,16.7857 -23.0497,30.6478 -39.8354,39.8354 -23.9696,13.1197 -62.6998,12.2209 -80.9027,12.2209 z m 323.462,-150.0001 V 579.51958 c 0,-27.61424 -0.8988,-73.97406 12.2209,-97.9437 9.1876,-16.78567 23.0497,-30.64781 39.8354,-39.83538 23.9696,-13.11969 70.3295,-12.22092 97.9437,-12.22092 h 197.2188 c 27.6142,0 72.3858,-0.073 100,-0.007 32.1629,0.0767 67.8525,0.44637 99.9359,1.90375 27.5801,1.25281 72.1405,6.05803 99.3181,10.92397 32.4115,5.80305 63.8946,13.57611 94.4493,23.31917 26.3036,8.38748 67.8647,25.2236 92.5246,37.6323 28.6775,14.43036 59.6745,32.12913 86.6402,49.53606 23.1927,14.97131 58.6769,42.40424 79.0329,61.05363 20.6839,18.9498 40.1408,39.25481 58.3707,60.91503 17.7774,21.12258 43.8119,57.63573 58.005,81.31389 16.5039,27.53344 33.2665,59.04168 46.938,88.09423 11.7548,24.97945 27.7143,66.87324 35.7422,93.28985 11.1478,36.68246 19.7834,74.66531 25.9069,113.94851 4.2527,27.2813 8.4936,71.8885 9.6347,99.4753 1.0342,25.0043 1.4036,51.0239 1.5262,74.3181 0.1453,27.6134 -1.4707,72.3358 -3.7871,99.8524 -8.6489,102.7442 -19.133,163.6058 -32.879,212.1568 -7.5205,26.5626 -23.4702,68.4807 -35.1425,93.4989 -13.5762,29.0987 -30.2395,60.6615 -46.6762,88.2337 -14.1356,23.7121 -40.1352,60.2531 -57.9205,81.3687 -17.6836,20.995 -36.5759,40.7461 -56.6771,59.2534 -20.31,18.6995 -55.7204,46.2288 -78.8874,61.2395 -26.9309,17.4495 -57.901,35.1802 -86.5602,49.6373 -24.6474,12.4335 -66.1931,29.3043 -92.4762,37.7565 -30.6148,9.8452 -62.1144,17.7394 -94.4988,23.6825 -27.1563,4.9836 -71.6932,10.0096 -99.269,11.3594 -32.0751,1.57 -67.761,2.0342 -99.9222,2.1646 -27.6135,0.1119 -72.3848,0.04 -99.999,0.04 l -200.5483,0 c -27.6142,0 -73.9741,0.8988 -97.9437,-12.2209 -16.7857,-9.1876 -30.6478,-23.0497 -39.8354,-39.8354 -13.1197,-23.9696 -12.2209,-70.3295 -12.2209,-97.9437 z m 332.959,-1046.26412 v 778.78712 c 0,27.6142 -0.8988,73.9741 12.2209,97.9437 9.1876,16.7857 23.0497,30.6478 39.8354,39.8354 23.9696,13.1197 70.3317,12.5382 97.9429,12.1573 18.9196,-0.261 39.9867,-0.9584 60.7942,-2.6839 27.5039,-2.2808 71.6493,-10.7777 97.7635,-19.6969 11.6697,-3.9857 22.9562,-8.5023 33.8596,-13.5497 25.0348,-11.5892 62.2674,-37.0435 81.8597,-56.4446 22.6246,-22.4038 45.0394,-50.1263 62.6811,-76.7812 15.2262,-23.0053 34.2368,-63.7457 43.0924,-89.8886 8.9067,-26.2939 16.1096,-54.4414 21.6087,-84.4426 4.9776,-27.1568 9.8028,-71.7192 11.1462,-99.2959 1.3724,-28.1689 1.8616,-58.3384 2.0322,-85.3929 0.1742,-27.6131 -1.3866,-72.3381 -3.6858,-99.8562 -7.8874,-94.3985 -17.3482,-149.783 -29.5337,-190.7978 -7.8588,-26.4517 -26.5444,-67.3998 -41.6032,-90.51307 -17.4414,-26.77036 -39.7259,-54.59607 -62.2773,-77.06227 -19.533,-19.45915 -56.7619,-44.93209 -81.8083,-56.49504 -10.9412,-5.05111 -22.2771,-9.56805 -34.0079,-13.55084 -26.1305,-8.87167 -70.315,-17.14355 -97.8312,-19.26365 -31.9433,-2.46121 -67.6469,-3.00615 -99.8299,-3.07835 -27.614,-0.062 -74.1961,4.47751 -92.9559,24.1807 -7.3828,7.75408 -13.2352,16.86147 -17.2208,26.79863 -10.1273,25.25044 -4.0828,71.47643 -4.0828,99.09067 z"
       inkscape:path-effect="#path-effect259;#path-effect263;#path-effect267"
       inkscape:original-d="m 1673.7386,2045.4805 h -332.959 V 429.51953 h 332.959 z m 190.503,-10e-5 V 429.51958 h 497.2188 c 142.0625,0 268.9568,32.186 380.6831,96.5581 112.4661,63.6321 200.1453,154.6409 263.0376,273.0263 62.8922,117.6455 94.3383,251.56902 94.3383,401.77052 v 74.3608 c 0,150.2015 -31.0762,283.7551 -93.2285,400.6607 -61.4124,116.9056 -148.3517,207.5444 -260.8178,271.9165 -112.4662,64.372 -239.3606,96.928 -380.6832,97.6679 z M 2197.2006,699.21628 V 1778.0034 h 160.9302 c 130.2239,0 229.7417,-42.5448 298.5532,-127.6343 68.8115,-85.0895 103.9572,-206.8045 105.437,-365.145 v -85.4595 c 0,-164.2598 -34.0358,-288.56442 -102.1074,-372.91402 -68.0716,-85.0895 -167.5893,-127.63429 -298.5532,-127.63429 z"
       transform="matrix(0.23970038,0,0,0.23981264,-276.17067,-40.768154)" /></g><path
     d="m -83.42155,454.47219 h 48.223071 c 10.875,0 18.96875,0.46875 24.28125,1.40625 5.3749999,0.875 10.1562498,2.75 14.3437498,5.625 4.25,2.875 7.7812502,6.71875 10.5937502,11.53125 2.8125,4.75 4.21875,10.09375 4.21875,16.03125 0,6.4375 -1.75,12.34375 -5.25,17.71875 -3.4375001,5.375 -8.1250002,9.40625 -14.0625002,12.09375 8.3750001,2.4375 14.8125002,6.59375 19.3125002,12.46875 4.5,5.875 6.75,12.78125 6.75,20.71875 0,6.25 -1.46875,12.34375 -4.40625,18.28125 -2.875,5.875 -6.84375,10.59375 -11.9062502,14.15625 -5,3.5 -11.1875,5.65625 -18.5625,6.46875 -4.6249998,0.5 -15.7812498,0.8125 -33.4687498,0.9375 H -83.42155 a 6.7144292,6.7144292 45 0 1 -6.714429,-6.71443 V 461.18662 a 6.7144292,6.7144292 135 0 1 6.714429,-6.71443 z m 21.035571,27.35129 v 22.82867 c 0,2.47219 2.004102,4.47629 4.476286,4.47629 h 13.711214 c 10.8125,0 17.53125,-0.15625 20.15625,-0.46875 4.75,-0.5625 8.46875,-2.1875 11.15625,-4.875 2.75,-2.75 4.1249998,-6.34375 4.1249998,-10.78125 0,-4.25 -1.1874999,-7.6875 -3.5624998,-10.3125 -2.3125,-2.6875 -5.78125,-4.3125 -10.40625,-4.875 -2.75,-0.3125 -10.65625,-0.46875 -23.71875,-0.46875 l -11.461214,0 c -2.472184,0 -4.476286,2.0041 -4.476286,4.47629 z m 0,54.65625 v 27.79742 c 0,2.47219 2.004102,4.47629 4.476286,4.47629 h 21.211214 c 10,0 16.34375,-0.28125 19.03125,-0.84375 4.125,-0.75 7.46875,-2.5625 10.0312498,-5.4375 2.625,-2.9375 3.9375,-6.84375 3.9375,-11.71875 0,-4.125 -1,-7.625 -3,-10.5 -2,-2.875 -4.9062498,-4.96875 -8.7187498,-6.28125 -3.75,-1.3125 -11.9375,-1.96875 -24.5625,-1.96875 h -17.929964 c -2.472184,0 -4.476286,2.0041 -4.476286,4.47629 z M 46.457829,454.47219 H 94.6809 c 10.875,0 18.96875,0.46875 24.28125,1.40625 5.375,0.875 10.15625,2.75 14.34375,5.625 4.25,2.875 7.78125,6.71875 10.59375,11.53125 2.8125,4.75 4.21875,10.09375 4.21875,16.03125 0,6.4375 -1.75,12.34375 -5.25,17.71875 -3.4375,5.375 -8.125,9.40625 -14.0625,12.09375 8.375,2.4375 14.8125,6.59375 19.3125,12.46875 4.5,5.875 6.75,12.78125 6.75,20.71875 0,6.25 -1.46875,12.34375 -4.40625,18.28125 -2.875,5.875 -6.84375,10.59375 -11.90625,14.15625 -5,3.5 -11.1875,5.65625 -18.5625,6.46875 -4.625,0.5 -15.78125,0.8125 -33.46875,0.9375 H 46.457829 A 6.7144292,6.7144292 45 0 1 39.7434,585.19526 V 461.18662 a 6.7144292,6.7144292 135 0 1 6.714429,-6.71443 z M 67.4934,481.82348 v 22.82867 c 0,2.47219 2.004102,4.47629 4.476286,4.47629 H 85.6809 c 10.8125,0 17.53125,-0.15625 20.15625,-0.46875 4.75,-0.5625 8.46875,-2.1875 11.15625,-4.875 2.75,-2.75 4.125,-6.34375 4.125,-10.78125 0,-4.25 -1.1875,-7.6875 -3.5625,-10.3125 -2.3125,-2.6875 -5.78125,-4.3125 -10.40625,-4.875 -2.75,-0.3125 -10.65625,-0.46875 -23.71875,-0.46875 l -11.461214,0 c -2.472184,0 -4.476286,2.0041 -4.476286,4.47629 z m 0,54.65625 v 27.79742 c 0,2.47219 2.004102,4.47629 4.476286,4.47629 H 93.1809 c 10,0 16.34375,-0.28125 19.03125,-0.84375 4.125,-0.75 7.46875,-2.5625 10.03125,-5.4375 2.625,-2.9375 3.9375,-6.84375 3.9375,-11.71875 0,-4.125 -1,-7.625 -3,-10.5 -2,-2.875 -4.90625,-4.96875 -8.71875,-6.28125 -3.75,-1.3125 -11.9375,-1.96875 -24.5625,-1.96875 H 71.969686 c -2.472184,0 -4.476286,2.0041 -4.476286,4.47629 z"
     id="text2"
     style="font-weight:bold;font-size:192px;line-height:1.25;font-family:Arial;-inkscape-font-specification:'Arial Bold';text-align:center;letter-spacing:-8.77687px;word-spacing:-0.0325759px;text-anchor:middle;white-space:pre;fill:#efe1ce;fill-opacity:1"
     transform="matrix(1.8497429,0,0,2.8197485,196.13083,-1219.2669)"
     aria-label="BB"
     inkscape:path-effect="#path-effect3;#path-effect4"
     inkscape:original-d="m -90.135979,454.47219 h 54.9375 q 16.3125,0 24.28125,1.40625 8.0624998,1.3125 14.3437498,5.625 6.375,4.3125 10.5937502,11.53125 4.21875,7.125 4.21875,16.03125 0,9.65625 -5.25,17.71875 -5.1562502,8.0625 -14.0625002,12.09375 12.5625002,3.65625 19.3125002,12.46875 6.75,8.8125 6.75,20.71875 0,9.375 -4.40625,18.28125 -4.3125,8.8125 -11.9062502,14.15625 -7.5,5.25 -18.5625,6.46875 -6.9374998,0.75 -33.4687498,0.9375 h -46.78125 z m 27.75,22.875 v 31.78125 h 18.1875 q 16.21875,0 20.15625,-0.46875 7.125,-0.84375 11.15625,-4.875 4.1249998,-4.125 4.1249998,-10.78125 0,-6.375 -3.5624998,-10.3125 -3.46875,-4.03125 -10.40625,-4.875 -4.125,-0.46875 -23.71875,-0.46875 z m 0,54.65625 v 36.75 h 25.6875 q 15,0 19.03125,-0.84375 6.1875,-1.125 10.0312498,-5.4375 3.9375,-4.40625 3.9375,-11.71875 0,-6.1875 -3,-10.5 -3,-4.3125 -8.7187498,-6.28125 -5.625,-1.96875 -24.5625,-1.96875 z M 39.7434,454.47219 h 54.9375 q 16.3125,0 24.28125,1.40625 8.0625,1.3125 14.34375,5.625 6.375,4.3125 10.59375,11.53125 4.21875,7.125 4.21875,16.03125 0,9.65625 -5.25,17.71875 -5.15625,8.0625 -14.0625,12.09375 12.5625,3.65625 19.3125,12.46875 6.75,8.8125 6.75,20.71875 0,9.375 -4.40625,18.28125 -4.3125,8.8125 -11.90625,14.15625 -7.5,5.25 -18.5625,6.46875 -6.9375,0.75 -33.46875,0.9375 H 39.7434 Z m 27.75,22.875 v 31.78125 h 18.1875 q 16.21875,0 20.15625,-0.46875 7.125,-0.84375 11.15625,-4.875 4.125,-4.125 4.125,-10.78125 0,-6.375 -3.5625,-10.3125 -3.46875,-4.03125 -10.40625,-4.875 -4.125,-0.46875 -23.71875,-0.46875 z m 0,54.65625 v 36.75 h 25.6875 q 15,0 19.03125,-0.84375 6.1875,-1.125 10.03125,-5.4375 3.9375,-4.40625 3.9375,-11.71875 0,-6.1875 -3,-10.5 -3,-4.3125 -8.71875,-6.28125 -5.625,-1.96875 -24.5625,-1.96875 z" /></svg>
